# xmcd
#
# Track frame offsets: 
#        150
#        21089
#        46380
#        74061
#        97944
#        114821
#        146665
#        170001
#        202053
#
# Disc length: 3241 seconds
#
# Revision: 0
# Processed by: cddbd v1.5.1PL2 Copyright (c) Steve Scherf et al.
# Submitted via: ExactAudioCopy v0.95b3
#
DISCID=7f0ca709
DTITLE=Otis Rush and Friends - Live At Montreux 1986
DYEAR=2006
DGENRE=Blues
TTITLE0=Tops
TTITLE1=Natural Ball
TTITLE2=Right Place, Wrong Time
TTITLE3=Mean Old World
TTITLE4=You Don't Love Me
TTITLE5=Crosscut Saw (With Eric Clapton)
TTITLE6=Double Trouble  (With Eric Clapton)
TTITLE7=All Your Love (I Missing Loving)  (With Eric Clapton)
TTITLE8=Everyday I Have The Blues  (With Eric Clapton and Luther Allis
TTITLE8=on)
EXTD=
EXTT0=
EXTT1=
EXTT2=
EXTT3=
EXTT4=
EXTT5=
EXTT6=
EXTT7=
EXTT8=
PLAYORDER=
